<svg width="32" height="32" viewBox="0 0 32 32" fill="none" xmlns="http://www.w3.org/2000/svg">
<path fill-rule="evenodd" clip-rule="evenodd" d="M18.8264 5.62319C18.4113 4.64554 17.4484 4 16.3723 4H15.6277L15.4141 4.00851L15.2043 4.03369C14.2354 4.18916 13.4155 4.87059 13.0979 5.82339L12.6013 7.30667L12.4266 7.37555L12.2547 7.45067L10.8559 6.75181L10.648 6.65866C9.66612 6.26815 8.53551 6.49393 7.77799 7.25145L7.25145 7.77799L7.09729 7.94584L6.9596 8.12396C6.39887 8.91647 6.30705 9.96643 6.75193 10.8562L7.45067 12.2547L7.37586 12.4259L7.30667 12.6013L5.82241 13.0982L5.62266 13.1737C4.64554 13.5887 4 14.5516 4 15.6277V16.3723L4.00851 16.5859L4.03369 16.7957C4.18916 17.7646 4.87059 18.5845 5.82339 18.9021L7.30667 19.3973L7.37555 19.5734L7.45067 19.744L6.75181 21.1441L6.65866 21.352C6.26815 22.3339 6.49393 23.4645 7.25145 24.222L7.77799 24.7486L7.94584 24.9027L8.12396 25.0404C8.91647 25.6011 9.96643 25.6929 10.8562 25.2481L12.2547 24.548L12.4266 24.6245L12.6013 24.692L13.098 26.1769L13.1736 26.3768C13.5887 27.3545 14.5516 28 15.6277 28H16.3723L16.5859 27.9915L16.7957 27.9663C17.7646 27.8108 18.5845 27.1294 18.9021 26.1766L19.3973 24.692L19.5741 24.6241L19.744 24.548L21.1441 25.2482L21.352 25.3413C22.3339 25.7319 23.4645 25.5061 24.222 24.7486L24.7486 24.222L24.9027 24.0542L25.0404 23.876C25.6011 23.0835 25.6929 22.0336 25.2481 21.1438L24.548 19.744L24.6241 19.5741L24.692 19.3973L26.1776 18.9018L26.3773 18.8263C27.3545 18.4113 28 17.4484 28 16.3723V15.6277L27.9915 15.4141L27.9663 15.2043C27.8108 14.2354 27.1294 13.4155 26.1766 13.0979L24.692 12.6013L24.6245 12.4266L24.548 12.2547L25.2482 10.8559L25.3413 10.648C25.7319 9.66612 25.5061 8.53551 24.7486 7.77799L24.222 7.25145L24.0542 7.09729L23.876 6.9596C23.0835 6.39887 22.0336 6.30705 21.1438 6.75193L19.744 7.45067L19.5734 7.37555L19.3973 7.30667L18.902 5.82306L18.8264 5.62319ZM15.6276 6.667L16.3723 6.66667L17.2915 9.42169L17.9494 9.62249L18.2535 9.72343C18.5548 9.83164 18.8477 9.96156 19.1302 10.1121L19.7376 10.4358L22.3364 9.13707L22.8629 9.66361L21.5642 12.2624L21.8879 12.8698L22.0315 13.1557C22.1682 13.4449 22.2839 13.7438 22.3775 14.0506L22.5783 14.7085L25.333 15.6276L25.3333 16.3723L22.5779 17.2932L22.3772 17.9505L22.2763 18.2543C22.1681 18.5554 22.0383 18.848 21.8879 19.1302L21.5642 19.7376L22.8629 22.3364L22.3364 22.8629L19.7376 21.5642L19.1302 21.8879L18.8446 22.0314C18.5557 22.168 18.257 22.2836 17.9505 22.3772L17.2932 22.5779L16.3727 25.3323L15.6277 25.3333L14.7085 22.5783L14.0506 22.3775L13.7465 22.2766C13.4452 22.1684 13.1523 22.0384 12.8698 21.8879L12.2624 21.5642L9.66361 22.8629L9.13707 22.3364L10.4358 19.7376L10.1121 19.1302L9.96846 18.8443C9.83181 18.5551 9.71612 18.2562 9.62249 17.9494L9.42169 17.2915L6.66667 16.3723V15.6277L9.42209 14.7068L9.62283 14.0495L9.72372 13.7457C9.83188 13.4446 9.96169 13.152 10.1121 12.8698L10.4358 12.2624L9.13707 9.66361L9.66361 9.13707L12.2624 10.4358L12.8698 10.1121L13.1557 9.96846C13.4449 9.83181 13.7438 9.71612 14.0506 9.62249L14.7085 9.42169L15.6276 6.667ZM16 12C18.2091 12 20 13.7909 20 16C20 18.2091 18.2091 20 16 20C13.7909 20 12 18.2091 12 16C12 13.7909 13.7909 12 16 12ZM14.6667 16C14.6667 15.2636 15.2636 14.6667 16 14.6667C16.7364 14.6667 17.3333 15.2636 17.3333 16C17.3333 16.7364 16.7364 17.3333 16 17.3333C15.2636 17.3333 14.6667 16.7364 14.6667 16Z" fill="#2A2C3D"/>
</svg>
