<svg width="32" height="32" viewBox="0 0 32 32" fill="none" xmlns="http://www.w3.org/2000/svg">
<path fill-rule="evenodd" clip-rule="evenodd" d="M25.3334 5.33334C27.4636 5.33334 29.2049 6.99857 29.3266 9.09831L29.3334 9.33334V22.6667C29.3334 24.7969 27.6681 26.5382 25.5684 26.6599L25.3334 26.6667H6.66669C4.53645 26.6667 2.79514 25.0014 2.67348 22.9017L2.66669 22.6667V9.33334C2.66669 7.2031 4.33191 5.4618 6.43166 5.34013L6.66669 5.33334H25.3334ZM10.6667 17.5547L5.33335 20.7533V22.6667C5.33335 23.3505 5.84807 23.914 6.51119 23.991L6.66669 24H25.3334C26.0171 24 26.5807 23.4853 26.6577 22.8222L26.6667 22.6667V22.088L21.3707 18.9107L17.3709 21.5775L10.6667 17.5547ZM6.66669 8.00001H25.3334L25.4888 8.00898C26.152 8.086 26.6667 8.64956 26.6667 9.33334V18.9787L21.2958 15.7559L17.2947 18.4213L10.6667 14.4451L5.33335 17.644V9.33334L5.34232 9.17785C5.41934 8.51473 5.98291 8.00001 6.66669 8.00001Z" fill="#6D00FF"/>
<circle cx="18" cy="12.6667" r="2" fill="#6D00FF"/>
</svg>
